<?xml version="1.0" encoding="iso-8859-1"?>
<!-- Uploaded to: SVG Repo, www.svgrepo.com, Generator: SVG Repo Mixer Tools -->
<svg fill="#000000" height="800px" width="800px" version="1.1" id="Layer_1" xmlns="http://www.w3.org/2000/svg" xmlns:xlink="http://www.w3.org/1999/xlink" 
	 viewBox="0 0 512 512" xml:space="preserve">
<g>
	<g>
		<path d="M256,0C114.843,0,0,114.843,0,256c0,72.343,31.262,141.123,83.892,189.217H61.217c-9.223,0-16.696,7.473-16.696,16.696
			c0,9.223,7.473,16.696,16.696,16.696h72.957c9.045,0,16.696-7.532,16.696-16.696v-71.886c0-9.223-7.473-16.696-16.696-16.696
			c-9.223,0-16.696,7.473-16.696,16.696v40.023C65.01,388.08,33.391,323.834,33.391,256c0-122.744,99.865-222.609,222.609-222.609
			c9.223,0,16.696-7.473,16.696-16.696C272.696,7.473,265.223,0,256,0z"/>
	</g>
</g>
<g>
	<g>
		<path d="M428.13,66.783h22.653c9.223,0,16.696-7.473,16.696-16.696s-7.473-16.696-16.696-16.696c-2.656,0-70.8-0.027-73.443,0.049
			c-9.219,0.282-16.208,7.808-16.208,16.647v71.886c0,9.223,7.473,16.696,16.696,16.696c9.223,0,16.696-7.473,16.696-16.696V81.948
			C446.99,123.914,478.609,188.16,478.609,256c0,122.744-99.865,222.609-222.609,222.609c-9.223,0-16.696,7.473-16.696,16.696
			c0,9.223,7.473,16.696,16.696,16.696c141.157,0,256-114.843,256-256C512,181.461,479.11,113.371,428.13,66.783z"/>
	</g>
</g>
<g>
	<g>
		<path d="M228.174,322.783h-83.478c0-18.413,14.978-33.391,33.391-33.391c36.826,0,66.783-29.956,66.783-66.783
			s-29.956-66.783-66.783-66.783s-66.783,29.956-66.783,66.783c0,9.223,7.473,16.696,16.696,16.696
			c9.223,0,16.696-7.473,16.696-16.696c0-18.413,14.978-33.391,33.391-33.391s33.391,14.978,33.391,33.391S196.5,256,178.087,256
			c-36.826,0-66.783,29.956-66.783,66.783v16.696c0,9.223,7.473,16.696,16.696,16.696h100.174c9.223,0,16.696-7.473,16.696-16.696
			C244.87,330.256,237.397,322.783,228.174,322.783z"/>
	</g>
</g>
<g>
	<g>
		<path d="M395.13,222.609c-9.223,0-16.696,7.473-16.696,16.696v50.087h-66.783v-9.783l95.282-95.282
			c6.521-6.516,6.521-17.092,0-23.609c-6.521-6.521-17.087-6.521-23.609,0L283.152,260.892c-3.13,3.13-4.891,7.375-4.891,11.804
			v33.391c0,9.223,7.473,16.696,16.696,16.696h83.478v16.696c0,9.223,7.473,16.696,16.696,16.696s16.696-7.473,16.696-16.696
			V239.304C411.826,230.082,404.353,222.609,395.13,222.609z"/>
	</g>
</g>
</svg>