<?xml version="1.0" encoding="iso-8859-1"?>
<!-- Uploaded to: SVG Repo, www.svgrepo.com, Generator: SVG Repo Mixer Tools -->
<svg fill="#000000" height="800px" width="800px" version="1.1" id="Layer_1" xmlns="http://www.w3.org/2000/svg" xmlns:xlink="http://www.w3.org/1999/xlink" 
	 viewBox="0 0 512 512" xml:space="preserve">
<g>
	<g>
		<path d="M283.826,0H83.478C55.859,0,33.391,22.468,33.391,50.087v116.87h300.522V50.087C333.913,22.468,311.445,0,283.826,0z
			 M300.522,133.565H66.783V50.087c0-9.206,7.49-16.696,16.696-16.696h200.348c9.206,0,16.696,7.49,16.696,16.696V133.565z"/>
	</g>
</g>
<g>
	<g>
		<path d="M495.304,111.304h-77.913c-27.619,0-50.087,22.468-50.087,50.087v166.957c0,9.206-7.49,16.696-16.696,16.696h-16.696
			V200.348H33.391v278.261H16.696C7.479,478.609,0,486.082,0,495.304C0,504.527,7.479,512,16.696,512h333.913
			c9.217,0,16.696-7.473,16.696-16.696c0-9.223-7.479-16.696-16.696-16.696h-16.696V378.435h16.696
			c27.619,0,50.087-22.468,50.087-50.087v-116.87h16.696c27.619,0,50.087-22.468,50.087-50.087v-16.696h27.826
			c9.217,0,16.696-7.473,16.696-16.696C512,118.777,504.521,111.304,495.304,111.304z M183.652,411.826
			c-27.619,0-50.087-22.468-50.087-50.087c0-8.761,2.304-17.397,6.674-24.973l28.957-50.157c2.979-5.163,8.489-8.348,14.456-8.348
			c5.967,0,11.478,3.184,14.456,8.348l28.946,50.147c0,0.006,0.011,0.006,0.011,0.006c4.37,7.581,6.674,16.217,6.674,24.978
			C233.739,389.358,211.271,411.826,183.652,411.826z M434.087,161.391c0,9.206-7.49,16.696-16.696,16.696h-16.696v-16.696
			c0-9.206,7.49-16.696,16.696-16.696h16.696V161.391z"/>
	</g>
</g>
</svg>