<!DOCTYPE svg PUBLIC "-//W3C//DTD SVG 1.1//EN" "http://www.w3.org/Graphics/SVG/1.1/DTD/svg11.dtd">
<!-- Uploaded to: SVG Repo, www.svgrepo.com, Transformed by: SVG Repo Mixer Tools -->
<svg fill="#000000" height="256px" width="256px" version="1.1" id="_x31_" xmlns="http://www.w3.org/2000/svg" xmlns:xlink="http://www.w3.org/1999/xlink" viewBox="0 0 128 128" xml:space="preserve" stroke="#000000" stroke-width="2.048">
<g id="SVGRepo_bgCarrier" stroke-width="0"/>
<g id="SVGRepo_tracerCarrier" stroke-linecap="round" stroke-linejoin="round"/>
<g id="SVGRepo_iconCarrier"> <g> <ellipse transform="matrix(0.2588 -0.9659 0.9659 0.2588 -9.6134 69.5531)" cx="40.5" cy="41" rx="8.9" ry="8.9"/> <path d="M60.9,59.6c-1.5-0.4-3,0.4-3.5,2l-7.5,27.7c-1.2,4.9-5.5,8.5-10.4,8.9c-0.4,0-1,0-1,0H27.7c-1.6,0-2.8,1.2-2.8,2.8 c0.1,1.7,1.3,2.9,2.9,2.9h10.8c0,0,0.8,0,1.5-0.1c7.4-0.6,13.5-5.8,15.4-13.1l7.4-27.7C63.3,61.6,62.4,60.1,60.9,59.6z"/> <path d="M38.9,93.7c3.4-0.2,6.1-2.6,6.9-5.8l7.7-28.5c0.7-2.7-0.9-5.5-3.6-6.1c-0.2,0-1.1-0.1-1.1-0.1c-7.2-0.7-14.1,3.8-16,11.1 c0,0.1-0.3,1.2-0.4,1.7c-1.5,5.7-2.3,11.3-2.7,16.9H14.8c-1.3,0-2.8,0.6-3.9,1.7c-1.1,1-0.7,4.5-0.7,5.9v25.7 c0,3.1,1.5,3.6,4.6,3.6s5.6-2.5,5.6-5.6V93.7h17.8H38.9z"/> <ellipse transform="matrix(0.2588 -0.9659 0.9659 0.2588 30.2257 121.4718)" cx="94.3" cy="41" rx="8.9" ry="8.9"/> <path d="M114.6,59.6c-1.5-0.4-3,0.4-3.5,2l-7.5,27.7c-1.2,4.9-5.5,8.5-10.4,8.9c-0.4,0-1,0-1,0H81.4c-1.6,0-2.8,1.2-2.8,2.8 c0.1,1.7,1.3,2.9,2.9,2.9h10.8c0,0,0.8,0,1.5-0.1c7.4-0.6,13.5-5.8,15.4-13.1l7.4-27.7C117.1,61.6,116.2,60.1,114.6,59.6z"/> <path d="M92.6,93.7c3.4-0.2,6.1-2.6,6.9-5.8l7.7-28.5c0.7-2.7-0.9-5.5-3.6-6.1c-0.2,0-1.1-0.1-1.1-0.1c-7.2-0.7-14.1,3.8-16,11.1 c0,0.1-0.3,1.2-0.4,1.7c-1.5,5.7-2.3,11.3-2.7,16.9H68.6c-1.3,0-2.8,0.6-3.9,1.7c-1.1,1-1.7,2.5-1.7,3.9v25.7 c0,3.1,2.5,5.6,5.6,5.6s5.6-2.5,5.6-5.6V93.7h17.8H92.6z"/> </g> </g>
</svg>