<?xml version="1.0" encoding="utf-8"?><!-- Uploaded to: SVG Repo, www.svgrepo.com, Generator: SVG Repo Mixer Tools -->
<svg width="800px" height="800px" viewBox="0 0 24 24" xmlns="http://www.w3.org/2000/svg" id="secure" class="icon glyph"><path d="M19.42,3.83,12.24,2h0A.67.67,0,0,0,12,2a.67.67,0,0,0-.2,0h0L4.58,3.83A2,2,0,0,0,3.07,5.92l.42,5.51a12,12,0,0,0,7.24,10.11l.88.38h0a.91.91,0,0,0,.7,0h0l.88-.38a12,12,0,0,0,7.24-10.11l.42-5.51A2,2,0,0,0,19.42,3.83ZM15.71,9.71l-4,4a1,1,0,0,1-1.42,0l-2-2a1,1,0,0,1,1.42-1.42L11,11.59l3.29-3.3a1,1,0,0,1,1.42,1.42Z" style="fill:#231f20"></path></svg>