<?xml version="1.0" encoding="iso-8859-1"?>
<!-- Uploaded to: SVG Repo, www.svgrepo.com, Generator: SVG Repo Mixer Tools -->
<svg fill="#000000" height="800px" width="800px" version="1.1" id="Layer_1" xmlns="http://www.w3.org/2000/svg" xmlns:xlink="http://www.w3.org/1999/xlink" 
	 viewBox="0 0 511.998 511.998" xml:space="preserve">
<g>
	<g>
		<path d="M462.998,253.8l-36.958-36.958c-3.128-3.128-7.371-4.886-11.794-4.886c-4.424,0-8.667,1.757-11.794,4.886l-9.284,9.284
			l-79.3-79.301v-34.237c0-9.212-7.469-16.681-16.681-16.681h-5.323V70.982h9.982c5.26,0,10.214-2.481,13.363-6.696
			c3.148-4.215,4.125-9.667,2.633-14.712l-11.12-37.62C304.624,4.864,298.114,0,290.723,0h-69.366
			c-7.391,0-13.902,4.864-15.997,11.952l-11.12,37.62c-1.491,5.045-0.515,10.498,2.633,14.712c3.149,4.215,8.102,6.696,13.363,6.696
			h9.982v24.926h-4.211c-9.212,0-16.681,7.469-16.681,16.681v33.124l-80.453,80.454l-9.326-9.326c-6.513-6.513-17.075-6.513-23.59,0
			l-36.958,36.958c-6.514,6.513-6.514,17.075,0,23.59l9.435,9.435c-6.514,6.513-6.514,17.075,0,23.59
			c3.257,3.257,7.526,4.886,11.794,4.886c4.268,0,8.538-1.629,11.794-4.886l16.12,16.12c-6.514,6.513-6.514,17.075,0,23.59
			c3.257,3.257,7.526,4.886,11.794,4.886c4.268,0,8.538-1.629,11.794-4.886l16.12,16.12c-6.514,6.513-6.514,17.075,0,23.59
			c3.257,3.257,7.526,4.886,11.794,4.886s8.538-1.629,11.794-4.886l8.413,8.413v97.073c0,9.212,7.468,16.681,16.681,16.681H325.54
			c9.212,0,16.681-7.469,16.681-16.681v-97.156l8.331-8.331c3.257,3.257,7.526,4.886,11.794,4.886s8.538-1.629,11.794-4.886
			c6.514-6.513,6.514-17.075,0-23.59l16.12-16.12c3.257,3.257,7.526,4.886,11.794,4.886c4.268,0,8.538-1.629,11.794-4.886
			c6.514-6.513,6.514-17.075,0-23.59l16.12-16.12c3.257,3.258,7.526,4.886,11.794,4.886s8.538-1.629,11.794-4.886
			c6.514-6.513,6.514-17.075,0-23.59l9.435-9.435C469.512,270.875,469.512,260.313,462.998,253.8z M256.596,386.569
			c-21.431,0-38.805-17.373-38.805-38.805c0-21.431,17.373-38.805,38.805-38.805s38.805,17.373,38.805,38.805
			C295.401,369.195,278.028,386.569,256.596,386.569z M353.306,265.986c-6.513-6.513-17.075-6.513-23.59,0
			c-6.514,6.513-6.514,17.075,0,23.59l-6.598,6.598c-15.812-19.593-40-32.158-67.079-32.158c-27.1,0-51.304,12.585-67.115,32.204
			l-6.643-6.643c6.514-6.513,6.514-17.075,0-23.59c-6.513-6.513-17.075-6.513-23.59,0l-16.12-16.12
			c0.517-0.517,0.979-1.068,1.413-1.633l74.063-74.064h75.983l73.755,73.756c0.496,0.674,1.03,1.33,1.639,1.939L353.306,265.986z"/>
	</g>
</g>
</svg>